<?xml version="1.0" encoding="iso-8859-1"?>
<!-- Generator: Adobe Illustrator 16.0.0, SVG Export Plug-In . SVG Version: 6.00 Build 0)  -->
<!DOCTYPE svg PUBLIC "-//W3C//DTD SVG 1.1//EN" "http://www.w3.org/Graphics/SVG/1.1/DTD/svg11.dtd">
<svg version="1.1" id="Capa_1" xmlns="http://www.w3.org/2000/svg" xmlns:xlink="http://www.w3.org/1999/xlink" x="0px" y="0px"
	 width="332.327px" height="332.327px" viewBox="0 0 332.327 332.327" style="enable-background:new 0 0 332.327 332.327;"
	 xml:space="preserve">
<g>
	<g>
		<path d="M284.964,118.8c0-65.506-53.294-118.8-118.8-118.8c-65.507,0-118.8,53.294-118.8,118.8
			c0,38.227,19.174,91.009,51.311,113.959c0.545,2.699,1.231,7.594,1.711,11.042c2.054,14.607,2.668,19.011,7.214,21.59
			c13.89,7.878,51.355,8.484,62.509,8.484c14.344,0,40.004-0.817,50.646-6.338c4.81-2.489,5.469-6.914,7.657-21.601
			c0.507-3.338,1.224-8.174,1.793-10.89C264.508,212.367,284.964,158.361,284.964,118.8z M212.369,243.729
			c-0.464,3.111-1.128,7.557-1.692,10.398c-5.511,1.593-17.091,3.196-34.989,3.491l-0.011-1.688
			c0.011-2.626,0.011-5.258-0.021-7.825c0.115-26.378,2.119-56.453,24.363-79.682c2.679-2.801,3.385-6.542,1.903-10.02
			c-1.571-3.683-5.146-6.157-8.896-6.157c-2.404,0-4.635,1.005-6.454,2.896c-8.886,9.289-15.589,19.768-20.335,31.886
			c-4.762-12.118-11.456-22.613-20.345-31.886c-1.814-1.896-4.045-2.896-6.447-2.896c-3.754,0-7.335,2.474-8.902,6.157
			c-1.484,3.478-0.777,7.225,1.907,10.02c22.249,23.234,24.237,53.314,24.355,79.649c-0.021,2.605-0.021,5.231-0.01,7.826
			l-0.016,1.514c-16.978-0.67-31.667-2.59-38.665-5.036c-0.562-2.896-1.215-7.568-1.674-10.832
			c-1.948-13.911-2.544-18.109-6.6-20.777C81.248,201.952,63.563,153.188,63.563,118.8c0-56.576,46.024-102.6,102.601-102.6
			c56.573,0,102.6,46.024,102.6,102.6c0,35.538-18.863,85.367-49.338,103.908C215.111,225.324,214.484,229.548,212.369,243.729z"/>
		<path d="M166.164,332.327l8.1-0.09v-0.406c51.315-4.435,53.969-41.876,53.989-42.267l0.707-13.02l-11.986,5.136
			c-12.24,5.247-40.901,6.719-50.715,6.851c-10.508-0.121-40.445-1.598-52.708-6.851l-11.981-5.136l0.701,13.02
			c0.021,0.391,2.668,37.832,53.99,42.267v0.496H166.164z M124.119,301.166c17.842,3.164,38.913,3.518,42.151,3.555
			c2.932-0.037,22.808-0.391,40.078-3.491c-5.77,7.009-17.308,14.396-40.324,14.808l-0.756,0.011l-0.763-0.011
			C141.399,315.626,129.864,308.18,124.119,301.166z"/>
	</g>
</g>
<g>
</g>
<g>
</g>
<g>
</g>
<g>
</g>
<g>
</g>
<g>
</g>
<g>
</g>
<g>
</g>
<g>
</g>
<g>
</g>
<g>
</g>
<g>
</g>
<g>
</g>
<g>
</g>
<g>
</g>
</svg>
